<svg width="30" height="30" viewBox="0 0 30 30" fill="none" xmlns="http://www.w3.org/2000/svg">
<path d="M25.3637 4.26304C19.4785 -1.42102 10.1482 -1.42102 4.26308 4.26304C-1.56371 10.296 -1.3966 19.9101 4.63633 25.7369C10.5215 31.421 19.8518 31.421 25.7369 25.7369C31.5637 19.704 31.3966 10.0898 25.3637 4.26304ZM25.0232 25.0231L25.0181 25.0181C19.4802 30.5509 10.5057 30.5468 4.97281 25.0089C-0.560034 19.4711 -0.55594 10.4966 4.98195 4.9637C10.5198 -0.569142 19.4944 -0.565048 25.0273 4.97278C27.6848 7.63281 29.1766 11.2398 29.1742 15C29.1744 18.7593 27.6813 22.3648 25.0232 25.0231Z" fill="white"/>
<path d="M21.364 8.63605C19.6641 6.93618 17.404 6 15 6C12.596 6 10.3359 6.93618 8.63603 8.63605C6.93618 10.3359 6 12.596 6 15C6 17.404 6.93618 19.6641 8.63606 21.364C10.3359 23.0638 12.596 24 15 24C16.4914 24 17.9689 23.6275 19.2729 22.9229C19.536 22.7807 19.634 22.4522 19.4918 22.1891C19.3497 21.9261 19.0213 21.8281 18.7581 21.9702C17.6117 22.5897 16.3122 22.9171 15 22.9171C10.6345 22.9171 7.08285 19.3655 7.08285 15C7.08285 10.6345 10.6345 7.08288 15 7.08288C19.3655 7.08288 22.9171 10.6345 22.9171 15C22.9171 16.0332 22.6662 17.2625 22.4409 17.7197C22.2412 18.125 21.6752 18.6959 21.0424 18.6959C20.2233 18.6959 19.5569 18.0295 19.5569 17.2104V11.5014C19.5569 11.2024 19.3144 10.9599 19.0154 10.9599C18.7164 10.9599 18.474 11.2024 18.474 11.5014V12.0546C17.6375 11.0695 16.3906 10.4432 15 10.4432C12.4874 10.4432 10.4431 12.4873 10.4431 15C10.4431 17.5126 12.4873 19.5568 15 19.5568C16.4358 19.5568 17.7184 18.8892 18.5542 17.8482C18.8386 18.9569 19.8463 19.7787 21.0424 19.7787C22.0869 19.7787 23.0253 18.9837 23.4123 18.1983C23.7418 17.5295 24 16.1246 24 15C24 12.596 23.0639 10.3359 21.364 8.63605ZM15 18.474C13.0845 18.474 11.526 16.9156 11.526 15C11.526 13.0844 13.0844 11.526 15 11.526C16.9156 11.526 18.474 13.0844 18.474 15C18.474 16.9156 16.9156 18.474 15 18.474Z" fill="white"/>
</svg>
