<svg width="30" height="30" viewBox="0 0 30 30" fill="none" xmlns="http://www.w3.org/2000/svg">
<g clip-path="url(#clip0)">
<path d="M25.3632 4.26304C19.478 -1.42102 10.1478 -1.42102 4.26259 4.26304C-1.5642 10.296 -1.39709 19.9101 4.63585 25.7369C10.521 31.421 19.8513 31.421 25.7364 25.7369C31.5632 19.704 31.3961 10.0898 25.3632 4.26304ZM25.0227 25.0231L25.0176 25.0181C19.4797 30.5509 10.5052 30.5468 4.97232 25.0089C-0.560522 19.4711 -0.556428 10.4966 4.98146 4.9637C10.5193 -0.569142 19.4939 -0.565048 25.0268 4.97278C27.6844 7.63281 29.1761 11.2398 29.1737 15C29.174 18.7593 27.6808 22.3648 25.0227 25.0231Z" fill="white"/>
<path d="M23.5296 19.3231L20.6847 16.4882C20.039 15.841 18.9909 15.8398 18.3437 16.4855C18.3428 16.4864 18.3419 16.4873 18.3409 16.4882L16.7109 18.1182C16.5876 18.2419 16.3932 18.259 16.2503 18.1588C15.3581 17.5353 14.523 16.8339 13.7546 16.063C13.0665 15.3764 12.4335 14.6368 11.8613 13.8508C11.7577 13.7096 11.7727 13.5139 11.8968 13.3902L13.5673 11.7196C14.2122 11.0734 14.2122 10.0271 13.5673 9.38091L10.7224 6.53598C10.0668 5.90923 9.03415 5.90923 8.37858 6.53598L7.47752 7.43703C6.11672 8.78252 5.63093 10.7804 6.22208 12.6005C6.6632 13.9321 7.28674 15.1961 8.07484 16.3566C8.78434 17.4205 9.59831 18.4108 10.5047 19.3129C11.4901 20.3054 12.5816 21.1864 13.7597 21.9402C15.0547 22.7853 16.4766 23.4176 17.9714 23.8132C18.3557 23.908 18.7501 23.9555 19.1458 23.9549C20.5026 23.9466 21.8006 23.4005 22.7552 22.4363L23.5297 21.6618C24.1746 21.0156 24.1746 19.9693 23.5296 19.3231ZM22.8128 20.9714C22.8121 20.972 22.8115 20.9727 22.8108 20.9734L22.8158 20.9582L22.0413 21.7327C21.0462 22.7404 19.5968 23.155 18.2193 22.8262C16.8315 22.4547 15.5121 21.8633 14.3113 21.0747C13.1957 20.3617 12.1618 19.5282 11.2284 18.5891C10.3696 17.7366 9.59807 16.8005 8.92511 15.7948C8.18904 14.7126 7.60643 13.5337 7.19384 12.2917C6.72086 10.8326 7.11281 9.23154 8.2063 8.1559L9.10735 7.25485C9.35787 7.0032 9.76495 7.00231 10.0165 7.25283C10.0172 7.25348 10.0179 7.25414 10.0185 7.25485L12.8635 10.0998C13.1151 10.3503 13.116 10.7574 12.8655 11.009C12.8649 11.0096 12.8642 11.0103 12.8635 11.011L11.193 12.6815C10.7136 13.1556 10.6534 13.909 11.0512 14.4533C11.6554 15.2825 12.3241 16.0628 13.0508 16.787C13.8611 17.6008 14.742 18.3411 15.6832 18.9992C16.227 19.3785 16.9642 19.3146 17.4347 18.8473L19.0495 17.2072C19.3 16.9555 19.7071 16.9546 19.9587 17.2052C19.9593 17.2058 19.96 17.2065 19.9607 17.2072L22.8107 20.0623C23.0624 20.3127 23.0633 20.7197 22.8128 20.9714Z" fill="white"/>
</g>
<defs>
<clipPath id="clip0">
<rect width="30" height="30" fill="white"/>
</clipPath>
</defs>
</svg>
