<svg width="30" height="30" viewBox="0 0 30 30" fill="none" xmlns="http://www.w3.org/2000/svg">
<path d="M25.6066 4.39342C22.7735 1.56023 19.0066 0 15 0C10.9934 0 7.22654 1.56023 4.39342 4.39342C1.56023 7.22654 0 10.9934 0 15C0 19.0066 1.56023 22.7735 4.39342 25.6066C7.22654 28.4398 10.9934 30 15 30C19.0066 30 22.7735 28.4398 25.6066 25.6066C28.4397 22.7734 30 19.0066 30 15C30 10.9934 28.4398 7.22654 25.6066 4.39342ZM15 29.0527C7.25133 29.0527 0.947344 22.7487 0.947344 15C0.947344 7.25133 7.25133 0.947344 15 0.947344C22.7487 0.947344 29.0527 7.25133 29.0527 15C29.0527 22.7487 22.7487 29.0527 15 29.0527Z" fill="white"/>
<path d="M23.4954 5.77949C23.35 5.66992 23.1546 5.65351 22.9928 5.73719L4.67702 15.2109C4.5187 15.2927 4.41974 15.4566 4.42091 15.6348C4.42208 15.8131 4.52327 15.9756 4.68276 16.0553L9.47362 18.4506V23.1971C9.47362 23.3213 9.51587 23.4442 9.60136 23.5344C9.69593 23.6342 9.82161 23.6842 9.94735 23.6842C10.0266 23.6842 10.1058 23.6644 10.1775 23.6246L15.6585 20.5795L19.8537 22.3774C19.9429 22.4157 20.0417 22.4315 20.1372 22.4137C20.3338 22.3769 20.4799 22.2263 20.5172 22.0403L21.5786 16.7331C21.6372 16.4399 21.413 16.1665 21.1141 16.1665C20.8883 16.1663 20.6939 16.3257 20.6496 16.5471L19.7026 21.2819L15.8182 19.6172C15.6836 19.5594 15.5297 19.5674 15.4015 19.6384L10.421 22.4054V18.1578C10.421 17.9784 10.3197 17.8145 10.1592 17.7341L5.93954 15.6244L22.5526 7.03135L21.1109 14.2397C21.0523 14.5329 21.2765 14.8063 21.5755 14.8063C21.8012 14.8063 21.9956 14.6469 22.04 14.4255L23.6749 6.2507C23.7106 6.07223 23.6408 5.889 23.4954 5.77949Z" fill="white"/>
<path d="M20.4243 9.65373C20.2754 9.46529 20.0089 9.41795 19.8043 9.54398L11.5938 14.5966C11.4537 14.6828 11.3684 14.8356 11.3684 15.0001V20.0527C11.3683 20.2724 11.5194 20.4632 11.7332 20.5137C11.7695 20.5223 11.806 20.5265 11.8421 20.5265C12.0183 20.5265 12.1842 20.4277 12.2657 20.2646L14.126 16.5439L20.3875 10.2824C20.5574 10.1125 20.5732 9.84228 20.4243 9.65373ZM13.4018 15.9282C13.3659 15.9642 13.3359 16.0058 13.3131 16.0513L12.3158 18.0461V15.2647L16.8647 12.4653L13.4018 15.9282Z" fill="white"/>
</svg>
